<svg width="32" height="32" viewBox="0 0 32 32" fill="none" xmlns="http://www.w3.org/2000/svg">
<path d="M15.1437 0.0360499C13.4727 0.252755 12.8236 0.743952 12.8236 1.77691C12.8236 2.19587 12.8926 2.34757 13.5693 3.3733L13.8732 3.82838L13.6729 3.87895C13.5693 3.90784 13.1827 4.00175 12.8236 4.08843C10.9523 4.53629 9.13617 5.41755 7.52724 6.66722C6.76767 7.25954 5.39352 8.68979 4.82038 9.48438C3.30813 11.5792 2.31377 14.1146 2.05137 16.5417C1.91327 17.8058 1.94779 17.7119 1.63015 17.7625C1.25036 17.8275 0.863667 18.0442 0.559836 18.362C-0.351659 19.3083 -0.11688 20.9408 1.02249 21.5982L1.39537 21.8149L4.24725 21.8365L7.09221 21.8582L6.56741 22.4867C6.27739 22.8334 5.98737 23.1729 5.92522 23.2379C5.82165 23.3607 5.79402 23.3535 5.47638 23.1873C5.13802 23.0068 5.13112 23.0068 3.10788 23.0068H1.07083L0.870573 23.2162C0.65651 23.4474 0.621983 23.6785 0.753183 23.9819C0.912004 24.3575 1.05701 24.3792 3.05264 24.3792C4.78586 24.3792 4.88944 24.3864 5.02064 24.5237C5.09659 24.6031 5.17255 24.7404 5.19327 24.8271C5.21398 24.921 5.22779 26.1851 5.21398 27.6442C5.19327 30.0786 5.18636 30.3097 5.06897 30.4253C4.95849 30.5409 4.75133 30.5625 3.0112 30.5914L1.07083 30.6275L0.870573 30.8659C0.608173 31.1693 0.608173 31.4582 0.870573 31.7616L1.07083 32H3.10097C5.32447 32 5.3728 31.9928 5.86308 31.5449L6.10476 31.321L13.2448 31.2993L20.3848 31.2777L20.9442 31.0826C21.9178 30.7359 22.1802 30.5047 25.1219 27.4275C28.2776 24.1192 28.2568 24.1481 28.2568 23.079C28.2568 22.6672 28.2154 22.3639 28.1394 22.1616L28.0221 21.8654L29.3133 21.8365C30.5977 21.8149 30.6046 21.8149 30.9775 21.5982C32.1169 20.9408 32.3517 19.3083 31.4402 18.362C31.1363 18.0442 30.7496 17.8275 30.3698 17.7625C30.0591 17.7119 30.066 17.7264 29.9832 16.7946C29.9624 16.5345 29.8658 15.9277 29.7691 15.4365C28.7195 9.96113 24.5625 5.432 19.3974 4.14622C18.914 4.02342 18.4307 3.90062 18.3271 3.87895L18.1268 3.82838L18.4307 3.3733C19.1695 2.25366 19.1902 2.21032 19.1626 1.69023C19.1212 0.816187 18.6654 0.390001 17.5192 0.151626C16.8424 0.0143794 15.7445 -0.0434085 15.1437 0.0360499ZM17.2568 1.51687C17.533 1.58188 17.7885 1.66134 17.823 1.69745C17.8575 1.73357 17.7332 1.97195 17.5261 2.26811C17.3327 2.54982 17.0634 2.98323 16.9391 3.22883L16.6974 3.67669L16 3.68391L15.3026 3.69114L15.0678 3.23606C14.9366 2.99046 14.6742 2.55705 14.4739 2.27533C14.2737 1.98639 14.1425 1.73357 14.177 1.69745C14.4463 1.43741 16.366 1.32183 17.2568 1.51687ZM18.3823 5.3092C23.4508 6.36383 27.3315 10.3223 28.4571 15.581C28.5538 16.0433 28.6573 16.7151 28.685 17.0763L28.7264 17.7336H16H3.2736L3.31504 17.0979C3.4048 15.7544 3.90198 13.9268 4.53727 12.5688C6.09095 9.26767 8.92211 6.73945 12.2504 5.6776C13.7627 5.19362 14.4877 5.09249 16.2417 5.12139C17.3258 5.14306 17.7885 5.17918 18.3823 5.3092ZM30.4734 19.33C30.7358 19.6117 30.722 20.009 30.4389 20.2763L30.2248 20.4785H16H1.77516L1.5611 20.2763C1.20203 19.944 1.2987 19.3661 1.74064 19.1711C1.81659 19.1422 8.27301 19.1205 16.0829 19.1277L30.2939 19.1422L30.4734 19.33ZM15.6962 22.046C16.946 22.7395 16.8839 24.5815 15.5926 25.1449C15.4131 25.2244 14.909 25.246 13.2241 25.246C10.9592 25.246 10.7106 25.2749 10.5517 25.5928C10.4551 25.7806 10.4551 26.1562 10.5517 26.344C10.7244 26.6835 10.8211 26.6907 15.1852 26.6907C19.3767 26.6907 19.8255 26.6618 20.5506 26.4018C21.2135 26.1562 21.6485 25.7806 23.506 23.8591C25.0114 22.2916 25.3497 21.9738 25.5707 21.9232C26.3648 21.7354 27.0622 22.3855 26.9448 23.209C26.9034 23.5413 26.8413 23.6063 24.162 26.4235C22.6567 28.0054 21.2963 29.3706 21.1444 29.4646C20.4677 29.8835 20.7163 29.8691 13.3277 29.8691H6.53979V27.2614V24.6609L7.19579 23.8519C8.19015 22.6167 8.90139 22.1255 9.99242 21.9232C10.1651 21.8943 11.4563 21.8727 12.8581 21.8727C15.3509 21.8871 15.42 21.8943 15.6962 22.046ZM22.1112 23.2957C20.2951 25.2027 20.2951 25.2027 18.6792 25.2316C18.044 25.246 17.5192 25.2388 17.5192 25.2244C17.5192 25.2027 17.602 25.0077 17.6987 24.7765C18.044 23.9964 17.9887 22.8117 17.5882 22.0821L17.457 21.851H20.4746H23.4922L22.1112 23.2957Z" fill="#FBB03B"/>
<path d="M13.9623 6.66058C12.7056 6.93508 12.3672 7.0651 12.236 7.33959C12.0772 7.6502 12.1117 7.8958 12.3327 8.13418C12.5675 8.37255 12.8092 8.40145 13.3478 8.24253C13.5342 8.18474 13.8726 8.09806 14.0935 8.05472C14.5838 7.94637 14.8255 7.72244 14.8255 7.35404C14.8255 7.02898 14.7288 6.85562 14.4802 6.71837C14.28 6.61002 14.2178 6.6028 13.9623 6.66058Z" fill="#FBB03B"/>
<path d="M9.85444 8.35044C9.06034 8.85608 7.98312 9.85292 7.28568 10.727C6.54682 11.6516 6.37419 11.9622 6.42943 12.28C6.49158 12.5978 6.76089 12.8218 7.08543 12.8218C7.39617 12.8146 7.45832 12.764 7.93478 12.0994C8.44577 11.3843 9.5368 10.2863 10.2549 9.75902C10.5657 9.52787 10.8557 9.28227 10.8902 9.21003C11.1112 8.78385 10.7936 8.19874 10.3516 8.19874C10.2066 8.19874 9.98564 8.27098 9.85444 8.35044Z" fill="#FBB03B"/>
</svg>
