<svg width="32" height="32" viewBox="0 0 32 32" fill="none" xmlns="http://www.w3.org/2000/svg">
<g clip-path="url(#clip0_396_5275)">
<path d="M14.7881 0.0439566C12.7934 0.212781 10.8426 0.738014 9.09806 1.58839C7.35353 2.43251 6.12174 3.31415 4.71486 4.71477C3.31424 6.12165 2.42635 7.35969 1.58848 9.09796C0.600543 11.1364 0.106574 13.1623 0.0190357 15.4758C-0.0747558 18.1395 0.475488 20.6781 1.66351 23.0666C2.49513 24.7486 3.35801 25.9367 4.71486 27.2998C6.07797 28.6566 7.26599 29.5195 8.94799 30.3511C12.3495 32.0456 16.2137 32.4521 19.9466 31.5141C21.5411 31.114 23.4357 30.2823 24.7925 29.3757C26.1556 28.469 27.6313 27.1122 28.5817 25.8866C31.6768 21.9099 32.7335 16.9202 31.5142 12.068C31.1453 10.5986 30.3762 8.78533 29.6009 7.56604C28.2815 5.48386 26.2431 3.48298 24.2485 2.29495C21.6724 0.756772 18.7961 -0.0248239 15.8823 0.0126927C15.4196 0.0189455 14.9256 0.031451 14.7881 0.0439566ZM17.383 1.06941C25.274 1.78848 31.3204 8.66652 30.989 16.57C30.889 19.0399 30.2262 21.3596 29.0256 23.4481C28.6567 24.0921 28.2315 24.7361 28.1502 24.7862C28.119 24.8049 27.8876 24.5798 27.6375 24.2859C26.487 22.9478 24.7612 21.5972 23.123 20.7531C22.3414 20.3529 21.1722 19.884 20.9533 19.884C20.8408 19.884 20.6094 20.0153 20.2843 20.2654C19.6527 20.7469 18.5835 21.2721 17.7894 21.491C17.2079 21.6535 17.0766 21.666 16.0074 21.666C14.9381 21.666 14.8068 21.6535 14.2253 21.491C13.4312 21.2721 12.362 20.7469 11.7305 20.2654C11.4053 20.0153 11.174 19.884 11.0614 19.884C10.8301 19.884 9.61078 20.378 8.82293 20.7969C7.12218 21.6973 5.52147 22.9541 4.37096 24.2922L3.90826 24.8299L3.77695 24.6736C3.53934 24.3985 2.93283 23.3793 2.55766 22.6352C1.08201 19.6589 0.644313 16.2574 1.31336 13.0184C2.86405 5.51513 9.77961 0.375353 17.383 1.06941ZM11.4428 21.2909C12.3057 21.8786 13.0561 22.2163 14.1253 22.4914C14.7381 22.654 14.8756 22.6665 16.0074 22.6665C17.1391 22.6665 17.2767 22.654 17.8894 22.4914C18.9649 22.2163 19.709 21.8786 20.5781 21.2846L21.0909 20.9345L21.5035 21.1095C23.1418 21.7911 24.6362 22.754 25.8805 23.9233C26.5433 24.5423 27.4499 25.5615 27.4499 25.6741C27.4499 25.7866 26.0681 27.1622 25.5116 27.6124C23.3544 29.3507 20.9158 30.4262 18.1208 30.8639C17.1329 31.0202 14.8819 31.0202 13.8939 30.8639C11.1552 30.4387 8.72914 29.3819 6.62821 27.7125C5.97792 27.1935 4.5648 25.7991 4.5648 25.6741C4.5648 25.5615 5.47145 24.5486 6.12174 23.9358C7.35353 22.779 8.8667 21.7973 10.4111 21.1596C10.6863 21.0408 10.9176 20.947 10.9239 20.947C10.9301 20.947 11.1677 21.1033 11.4428 21.2909Z" fill="#FBB03B"/>
<path d="M15.1636 8.81039C13.8505 9.02924 12.7 9.617 11.7871 10.5362C10.1489 12.1806 9.63618 14.6192 10.4615 16.8577C10.9555 18.2083 12.1498 19.4651 13.5317 20.1091C14.4196 20.5156 14.851 20.6031 16.0078 20.5969C17.2145 20.5969 17.6772 20.4968 18.6027 20.0466C20.2096 19.265 21.3476 17.8456 21.7978 16.0699C21.9729 15.3821 21.9604 13.9189 21.7728 13.2248C21.4914 12.1869 20.7786 10.9926 20.0533 10.3423C19.3217 9.68578 18.3525 9.1668 17.4396 8.9417C16.8581 8.79789 15.6639 8.72911 15.1636 8.81039ZM16.7581 9.82334C17.8211 9.99217 18.7215 10.4549 19.4843 11.2177C20.0783 11.8117 20.4285 12.3745 20.7098 13.1936C20.8974 13.7501 20.9099 13.8376 20.9099 14.663C20.9162 15.6697 20.8349 16.0511 20.441 16.864C19.847 18.102 18.7652 19.0212 17.3834 19.4589C16.9832 19.5839 16.7831 19.6027 16.0078 19.6027C15.2324 19.6027 15.0323 19.5839 14.6321 19.4589C13.2878 19.0337 12.2874 18.2146 11.6371 17.0015C10.9805 15.7822 10.893 14.1503 11.412 12.8684C12.2749 10.7425 14.5321 9.46068 16.7581 9.82334Z" fill="#FBB03B"/>
</g>
<defs>
<clipPath id="clip0_396_5275">
<rect width="32" height="32" fill="white"/>
</clipPath>
</defs>
</svg>
